<?xml version="1.0" encoding="UTF-8" standalone="no"?>
<!-- Created with Inkscape (http://www.inkscape.org/) -->

<svg
   width="174.53149mm"
   height="95.341248mm"
   viewBox="0 0 174.53149 95.341248"
   version="1.1"
   id="svg1252"
   inkscape:version="1.2.2 (b0a8486541, 2022-12-01)"
   sodipodi:docname="charlotte-logo.svg"
   xmlns:inkscape="http://www.inkscape.org/namespaces/inkscape"
   xmlns:sodipodi="http://sodipodi.sourceforge.net/DTD/sodipodi-0.dtd"
   xmlns="http://www.w3.org/2000/svg"
   xmlns:svg="http://www.w3.org/2000/svg">
  <sodipodi:namedview
     id="namedview1254"
     pagecolor="#ffffff"
     bordercolor="#666666"
     borderopacity="1.0"
     inkscape:showpageshadow="2"
     inkscape:pageopacity="0.0"
     inkscape:pagecheckerboard="0"
     inkscape:deskcolor="#d1d1d1"
     inkscape:document-units="mm"
     showgrid="false"
     inkscape:zoom="1.4412757"
     inkscape:cx="369.11745"
     inkscape:cy="167.90681"
     inkscape:window-width="1536"
     inkscape:window-height="827"
     inkscape:window-x="0"
     inkscape:window-y="0"
     inkscape:window-maximized="1"
     inkscape:current-layer="layer1">
    <inkscape:grid
       type="xygrid"
       id="grid1563" />
  </sodipodi:namedview>
  <defs
     id="defs1249">
    <clipPath
       clipPathUnits="userSpaceOnUse"
       id="clipPath626">
      <path
         d="M 0,0 H 792 V 612 H 0 Z"
         id="path624" />
    </clipPath>
    <clipPath
       clipPathUnits="userSpaceOnUse"
       id="clipPath646">
      <path
         d="M 0,0 H 792 V 612 H 0 Z"
         id="path644" />
    </clipPath>
    <clipPath
       clipPathUnits="userSpaceOnUse"
       id="clipPath662">
      <path
         d="M 0,0 H 792 V 612 H 0 Z"
         id="path660" />
    </clipPath>
    <clipPath
       clipPathUnits="userSpaceOnUse"
       id="clipPath686">
      <path
         d="M 0,0 H 792 V 612 H 0 Z"
         id="path684" />
    </clipPath>
    <clipPath
       clipPathUnits="userSpaceOnUse"
       id="clipPath708">
      <path
         d="M 0,0 H 792 V 612 H 0 Z"
         id="path706" />
    </clipPath>
    <clipPath
       clipPathUnits="userSpaceOnUse"
       id="clipPath728">
      <path
         d="M 0,0 H 792 V 612 H 0 Z"
         id="path726" />
    </clipPath>
  </defs>
  <g
     inkscape:label="Layer 1"
     inkscape:groupmode="layer"
     id="layer1"
     transform="translate(-21.335545,-5.5921607)">
    <g
       id="g971"
       transform="matrix(0.68433492,0,0,-0.68433492,-52.751754,276.45884)">
      <g
         id="g620">
        <g
           id="g622"
           clip-path="url(#clipPath626)">
          <g
             id="g628"
             transform="translate(154.8723,291.2832)">
            <path
               d="m 0,0 -2.227,-1.767 c -1.229,1.655 -2.705,2.91 -4.426,3.763 -1.724,0.855 -3.615,1.282 -5.675,1.282 -2.254,0 -4.34,-0.559 -6.26,-1.678 -1.922,-1.12 -3.409,-2.623 -4.465,-4.51 -1.057,-1.888 -1.586,-4.011 -1.586,-6.368 0,-3.564 1.182,-6.537 3.544,-8.92 2.361,-2.383 5.342,-3.576 8.939,-3.576 3.956,0 7.266,1.602 9.929,4.808 L 0,-18.715 c -1.408,-1.853 -3.166,-3.288 -5.271,-4.301 -2.107,-1.013 -4.46,-1.521 -7.057,-1.521 -4.943,0 -8.841,1.704 -11.695,5.106 -2.395,2.875 -3.591,6.345 -3.591,10.412 0,4.278 1.45,7.876 4.35,10.797 2.9,2.921 6.531,4.382 10.897,4.382 2.636,0 5.018,-0.541 7.143,-1.621 C -3.098,3.461 -1.357,1.947 0,0"
               style="fill:#24824a;fill-opacity:1;fill-rule:nonzero;stroke:none"
               id="path630" />
          </g>
        </g>
      </g>
      <g
         id="g632"
         transform="translate(177.705,296.7067)">
        <path
           d="M 0,0 V -12.257 H -14.384 V 0 h -2.822 v -29.224 h 2.822 v 14.106 H 0 V -29.224 H 2.824 V 0 Z"
           style="fill:#24824a;fill-opacity:1;fill-rule:nonzero;stroke:none"
           id="path634" />
      </g>
      <g
         id="g636"
         transform="translate(198.2524,296.7066)">
        <path
           d="m 0,0 -13.346,-29.224 h 3.149 l 4.402,9.616 H 6.374 l 4.443,-9.616 h 3.048 L 0.693,0 Z m 0.335,-6.209 4.819,-10.579 h -9.659 z"
           style="fill:#24824a;fill-opacity:1;fill-rule:nonzero;stroke:none"
           id="path638" />
      </g>
      <g
         id="g640">
        <g
           id="g642"
           clip-path="url(#clipPath646)">
          <g
             id="g648"
             transform="translate(216.6498,296.7071)">
            <path
               d="m 0,0 h 5.626 c 3.137,0 5.263,-0.132 6.376,-0.398 1.677,-0.398 3.041,-1.25 4.09,-2.557 1.051,-1.306 1.575,-2.914 1.575,-4.822 0,-1.593 -0.362,-2.991 -1.085,-4.198 -0.722,-1.207 -1.757,-2.118 -3.101,-2.735 -1.345,-0.618 -3.2,-0.933 -5.568,-0.945 L 18.072,-29.224 H 14.578 L 4.419,-15.655 H 2.823 V -29.224 H 0 Z m 2.823,-2.861 v -9.933 l 4.867,-0.041 c 1.884,0 3.279,0.186 4.183,0.557 0.904,0.371 1.61,0.964 2.115,1.777 0.508,0.815 0.761,1.727 0.761,2.732 0,0.982 -0.257,1.871 -0.769,2.673 -0.515,0.802 -1.187,1.374 -2.021,1.719 -0.833,0.343 -2.219,0.516 -4.154,0.516 z"
               style="fill:#24824a;fill-opacity:1;fill-rule:nonzero;stroke:none"
               id="path650" />
          </g>
        </g>
      </g>
      <g
         id="g652"
         transform="translate(240.9191,296.7067)">
        <path
           d="m 0,0 v -29.224 h 13.692 v 2.821 H 2.824 V 0 Z"
           style="fill:#24824a;fill-opacity:1;fill-rule:nonzero;stroke:none"
           id="path654" />
      </g>
      <g
         id="g656">
        <g
           id="g658"
           clip-path="url(#clipPath662)">
          <g
             id="g664"
             transform="translate(271.985,297.4424)">
            <path
               d="m 0,0 c 4.278,0 7.859,-1.478 10.742,-4.431 2.882,-2.953 4.323,-6.589 4.323,-10.907 0,-4.278 -1.439,-7.907 -4.314,-10.887 -2.876,-2.98 -6.382,-4.469 -10.521,-4.469 -4.189,0 -7.725,1.482 -10.607,4.45 -2.883,2.966 -4.323,6.556 -4.323,10.766 0,2.809 0.655,5.411 1.969,7.809 1.313,2.398 3.102,4.274 5.37,5.632 C -5.093,-0.679 -2.64,0 0,0 m 0.125,-2.841 c -2.091,0 -4.071,-0.564 -5.944,-1.69 -1.872,-1.127 -3.334,-2.644 -4.386,-4.553 -1.05,-1.91 -1.576,-4.037 -1.576,-6.383 0,-3.473 1.162,-6.405 3.491,-8.798 2.326,-2.393 5.131,-3.589 8.415,-3.589 2.191,0 4.222,0.549 6.087,1.65 1.866,1.101 3.321,2.604 4.366,4.514 1.045,1.909 1.568,4.03 1.568,6.362 0,2.319 -0.523,4.417 -1.568,6.293 -1.045,1.875 -2.516,3.377 -4.414,4.504 -1.897,1.126 -3.911,1.69 -6.039,1.69"
               style="fill:#24824a;fill-opacity:1;fill-rule:nonzero;stroke:none"
               id="path666" />
          </g>
        </g>
      </g>
      <g
         id="g668"
         transform="translate(288.609,296.7067)">
        <path
           d="m 0,0 v -2.861 h 6.298 v -26.363 h 2.881 v 26.363 h 6.298 V 0 Z"
           style="fill:#24824a;fill-opacity:1;fill-rule:nonzero;stroke:none"
           id="path670" />
      </g>
      <g
         id="g672"
         transform="translate(308.8139,296.7067)">
        <path
           d="m 0,0 v -2.861 h 6.3 v -26.363 h 2.88 v 26.363 h 6.299 V 0 Z"
           style="fill:#24824a;fill-opacity:1;fill-rule:nonzero;stroke:none"
           id="path674" />
      </g>
      <g
         id="g676"
         transform="translate(328.6084,296.7068)">
        <path
           d="m 0,0 v -29.224 h 16.074 v 2.86 H 2.823 v 11.485 h 13.251 v 2.86 H 2.823 v 9.158 H 16.189 V 0 Z"
           style="fill:#24824a;fill-opacity:1;fill-rule:nonzero;stroke:none"
           id="path678" />
      </g>
      <g
         id="g680">
        <g
           id="g682"
           clip-path="url(#clipPath686)">
          <g
             id="g688"
             transform="translate(209.0299,309.4123)">
            <path
               d="m 0,0 c -1.355,-1.63 -2.991,-2.423 -5,-2.423 -1.802,0 -3.315,0.602 -4.493,1.791 -1.191,1.204 -1.771,2.664 -1.771,4.469 0,1.178 0.266,2.252 0.793,3.192 0.525,0.937 1.276,1.697 2.233,2.255 0.959,0.559 2.019,0.843 3.147,0.843 1.035,0 1.996,-0.216 2.857,-0.644 0.859,-0.425 1.604,-1.06 2.22,-1.889 L 0.233,7.262 2.06,8.71 1.829,9.041 c -0.761,1.092 -1.752,1.953 -2.942,2.558 -1.188,0.603 -2.533,0.909 -3.999,0.909 -2.431,0 -4.486,-0.828 -6.108,-2.461 -1.625,-1.636 -2.448,-3.679 -2.448,-6.073 0,-2.267 0.679,-4.231 2.018,-5.84 1.601,-1.907 3.807,-2.874 6.559,-2.874 1.443,0 2.768,0.287 3.943,0.851 1.179,0.568 2.178,1.383 2.966,2.42 L 2.075,-1.131 0.25,0.301 Z"
               style="fill:#6c6c71;fill-opacity:1;fill-rule:nonzero;stroke:none"
               id="path690" />
          </g>
        </g>
      </g>
      <path
         d="m 214.015,305.065 h 2.322 v 16.462 h -2.322 z"
         style="fill:#6c6c71;fill-opacity:1;fill-rule:nonzero;stroke:none"
         id="path692" />
      <g
         id="g694"
         transform="translate(219.2191,319.1573)">
        <path
           d="M 0,0 H 3.368 V -14.093 H 5.719 V 0 H 9.086 V 2.37 H 0 Z"
           style="fill:#6c6c71;fill-opacity:1;fill-rule:nonzero;stroke:none"
           id="path696" />
      </g>
      <g
         id="g698"
         transform="translate(236.7086,315.4657)">
        <path
           d="m 0,0 -3.635,6.061 h -2.69 l 5.198,-8.695 V -10.4 h 2.301 v 7.767 L 6.273,6.061 H 3.577 Z"
           style="fill:#6c6c71;fill-opacity:1;fill-rule:nonzero;stroke:none"
           id="path700" />
      </g>
      <g
         id="g702">
        <g
           id="g704"
           clip-path="url(#clipPath708)">
          <g
             id="g710"
             transform="translate(256.423,321.9198)">
            <path
               d="m 0,0 c -1.477,0 -2.869,-0.386 -4.138,-1.145 -1.27,-0.76 -2.286,-1.825 -3.021,-3.167 -0.732,-1.339 -1.105,-2.813 -1.105,-4.381 0,-2.358 0.818,-4.394 2.431,-6.054 1.611,-1.659 3.616,-2.501 5.956,-2.501 2.313,0 4.302,0.846 5.911,2.513 1.609,1.668 2.424,3.726 2.424,6.117 0,2.414 -0.818,4.474 -2.43,6.127 C 4.415,-0.838 2.387,0 0,0 m 6.086,-8.614 c 0,-1.167 -0.264,-2.242 -0.785,-3.193 -0.52,-0.949 -1.253,-1.707 -2.182,-2.255 -0.93,-0.548 -1.957,-0.826 -3.052,-0.826 -1.659,0 -3.036,0.586 -4.212,1.796 -1.175,1.208 -1.747,2.649 -1.747,4.404 0,1.175 0.266,2.253 0.791,3.203 0.522,0.951 1.262,1.718 2.195,2.279 0.933,0.562 1.934,0.848 2.973,0.848 1.06,0 2.079,-0.286 3.025,-0.848 0.947,-0.563 1.69,-1.321 2.21,-2.253 0.52,-0.935 0.784,-1.995 0.784,-3.155"
               style="fill:#6c6c71;fill-opacity:1;fill-rule:nonzero;stroke:none"
               id="path712" />
          </g>
        </g>
      </g>
      <g
         id="g714"
         transform="translate(276.4987,319.1573)">
        <path
           d="m 0,0 v 2.37 h -8.378 v -16.463 h 2.322 v 7.668 H 0 v 2.37 H -6.056 V 0 Z"
           style="fill:#6c6c71;fill-opacity:1;fill-rule:nonzero;stroke:none"
           id="path716" />
      </g>
      <g
         id="g718"
         transform="translate(271.2978,332.5418)">
        <path
           d="m 0,0 -0.584,1.183 h -0.398 v -2.124 h 0.274 V 0.89 l 0.603,-1.246 H 0.069 L 0.677,0.89 V -0.941 H 0.97 V 1.183 H 0.565 Z"
           style="fill:#24824a;fill-opacity:1;fill-rule:nonzero;stroke:none"
           id="path720" />
      </g>
      <g
         id="g722">
        <g
           id="g724"
           clip-path="url(#clipPath728)">
          <g
             id="g730"
             transform="translate(269.3576,332.7522)">
            <path
               d="m 0,0 c -0.08,0.02 -0.178,0.038 -0.294,0.059 -0.116,0.018 -0.205,0.035 -0.268,0.047 -0.119,0.027 -0.202,0.066 -0.248,0.116 -0.048,0.051 -0.07,0.121 -0.07,0.209 0,0.099 0.045,0.18 0.141,0.242 0.096,0.063 0.22,0.094 0.376,0.094 0.141,0 0.281,-0.022 0.417,-0.068 C 0.189,0.654 0.298,0.597 0.383,0.53 h 0.02 v 0.333 c -0.1,0.042 -0.212,0.078 -0.341,0.105 -0.128,0.029 -0.27,0.044 -0.424,0.044 -0.237,0 -0.434,-0.057 -0.589,-0.171 -0.156,-0.113 -0.233,-0.259 -0.233,-0.438 0,-0.153 0.046,-0.28 0.14,-0.377 0.094,-0.097 0.239,-0.165 0.433,-0.204 0.095,-0.019 0.186,-0.034 0.272,-0.047 0.086,-0.014 0.166,-0.029 0.239,-0.048 0.097,-0.024 0.169,-0.059 0.217,-0.104 0.048,-0.045 0.071,-0.114 0.071,-0.208 0,-0.109 -0.05,-0.197 -0.151,-0.263 -0.1,-0.065 -0.24,-0.099 -0.42,-0.099 -0.128,0 -0.266,0.025 -0.41,0.074 -0.145,0.048 -0.272,0.117 -0.383,0.206 h -0.021 v -0.354 c 0.13,-0.057 0.257,-0.098 0.386,-0.126 0.124,-0.029 0.266,-0.043 0.424,-0.043 0.147,0 0.273,0.017 0.378,0.051 0.104,0.034 0.195,0.081 0.274,0.143 0.072,0.055 0.128,0.124 0.166,0.206 0.042,0.08 0.06,0.162 0.06,0.245 0,0.151 -0.042,0.271 -0.123,0.356 C 0.287,-0.105 0.163,-0.041 0,0"
               style="fill:#24824a;fill-opacity:1;fill-rule:nonzero;stroke:none"
               id="path732" />
          </g>
          <g
             id="g734"
             transform="translate(236.8303,376.2502)">
            <path
               d="m 0,0 0.021,-0.001 c 2.542,0.09 4.56,2.167 4.56,4.666 0,2.525 -2.057,4.617 -4.586,4.665 L -0.043,9.331 C -2.573,9.239 -4.588,7.163 -4.588,4.665 -4.588,2.141 -2.53,0.048 0,0"
               style="fill:#24824a;fill-opacity:1;fill-rule:nonzero;stroke:none"
               id="path736" />
          </g>
          <g
             id="g738"
             transform="translate(263.8307,336.9127)">
            <path
               d="m 0,0 h -54.008 c -1.494,0 -2.706,-1.212 -2.706,-2.705 0,-1.495 1.212,-2.706 2.706,-2.706 H 0 c 1.494,0 2.705,1.211 2.705,2.706 C 2.705,-1.212 1.494,0 0,0"
               style="fill:#24824a;fill-opacity:1;fill-rule:nonzero;stroke:none"
               id="path740" />
          </g>
          <g
             id="g742"
             transform="translate(260.0963,368.8361)">
            <path
               d="m 0,0 c -0.983,0 -1.934,-0.102 -2.823,-0.303 l -0.482,-0.11 -0.303,0.389 c -1.676,2.143 -4.806,4.698 -10.208,4.698 -3.667,0 -6.658,-1.003 -8.89,-2.982 l -0.57,-0.505 -0.552,0.502 c -2.232,1.98 -5.224,2.985 -8.895,2.985 -5.401,0 -8.531,-2.555 -10.206,-4.698 l -0.304,-0.388 -0.481,0.109 c -0.889,0.2 -1.84,0.302 -2.825,0.302 -7.474,0 -10.88,-6.233 -10.88,-12.026 0,-5.2 1.27,-8.207 6.431,-15.07 h 7.444 c -7.27,9.285 -7.977,11.137 -7.977,15.07 0,3.839 1.863,6.129 4.982,6.129 h 0.896 l -0.125,-0.886 c -0.084,-0.596 -0.128,-1.174 -0.128,-1.715 0,-6.196 1.859,-9.298 9.148,-18.598 h 7.502 l -1.923,2.444 c -8.069,10.233 -8.829,12.074 -8.829,16.154 0,0.073 0.083,7.274 7.275,7.274 5.969,0 6.529,-3.708 6.58,-4.451 l 0.003,-21.421 h 5.817 c -0.002,2.218 -0.011,4.761 -0.021,7.56 -0.011,3.207 -0.024,6.763 -0.028,10.544 v 3.391 c 0.145,1.212 1.038,4.377 6.556,4.377 7.193,0 7.275,-7.201 7.275,-7.274 0,-4.08 -0.76,-5.921 -8.829,-16.154 l -1.923,-2.444 h 7.502 c 7.288,9.3 9.148,12.402 9.148,18.598 0,0.541 -0.044,1.119 -0.127,1.715 l -0.125,0.886 H 0 c 3.119,0 4.982,-2.29 4.982,-6.129 0,-3.931 -0.707,-5.785 -7.976,-15.07 H 4.45 c 5.16,6.862 6.43,9.869 6.43,15.07 C 10.88,-6.234 7.474,0 0,0"
               style="fill:#24824a;fill-opacity:1;fill-rule:nonzero;stroke:none"
               id="path744" />
          </g>
        </g>
      </g>
    </g>
  </g>
</svg>
