<?xml version="1.0" encoding="UTF-8" standalone="no"?>
<!-- Created with Inkscape (http://www.inkscape.org/) -->

<svg
   width="184.79857mm"
   height="86.816582mm"
   viewBox="0 0 184.79857 86.816582"
   version="1.1"
   id="svg695"
   inkscape:version="1.2.2 (b0a8486541, 2022-12-01)"
   sodipodi:docname="mdc-logo.svg"
   xmlns:inkscape="http://www.inkscape.org/namespaces/inkscape"
   xmlns:sodipodi="http://sodipodi.sourceforge.net/DTD/sodipodi-0.dtd"
   xmlns="http://www.w3.org/2000/svg"
   xmlns:svg="http://www.w3.org/2000/svg">
  <sodipodi:namedview
     id="namedview697"
     pagecolor="#ffffff"
     bordercolor="#666666"
     borderopacity="1.0"
     inkscape:showpageshadow="2"
     inkscape:pageopacity="0.0"
     inkscape:pagecheckerboard="0"
     inkscape:deskcolor="#d1d1d1"
     inkscape:document-units="mm"
     showgrid="false"
     inkscape:zoom="1.4412757"
     inkscape:cx="341.36426"
     inkscape:cy="176.9266"
     inkscape:window-width="1536"
     inkscape:window-height="827"
     inkscape:window-x="0"
     inkscape:window-y="0"
     inkscape:window-maximized="1"
     inkscape:current-layer="layer1">
    <inkscape:grid
       type="xygrid"
       id="grid922" />
  </sodipodi:namedview>
  <defs
     id="defs692">
    <clipPath
       clipPathUnits="userSpaceOnUse"
       id="clipPath128">
      <path
         d="m 62.693,140.427 h 117.165 v 53.5 H 62.693 Z"
         id="path126" />
    </clipPath>
    <clipPath
       clipPathUnits="userSpaceOnUse"
       id="clipPath160">
      <path
         d="M 36,116.527 H 202.5 V 218.272 H 36 Z"
         id="path158" />
    </clipPath>
  </defs>
  <g
     inkscape:label="Layer 1"
     inkscape:groupmode="layer"
     id="layer1"
     transform="translate(-15.354287,-5.5255488)">
    <g
       id="g506"
       transform="matrix(1.4573715,0,0,-1.4573715,-66.910567,292.14923)">
      <g
         id="g122">
        <g
           id="g124"
           clip-path="url(#clipPath128)">
          <g
             id="g130"
             transform="translate(150.8071,174.6085)">
            <path
               d="m 0,0 c -10.446,0 -36.206,-0.009 -36.206,-0.009 v 19.274 c 0,0 27.484,0.098 38.765,0.037 28.531,-1.608 33.841,-50.297 0.343,-53.614 -8.082,0 -39.108,0.225 -39.108,0.225 v 18.384 H 0.197 C 9.848,-15.703 9.848,-0.009 0,0"
               style="fill:#007bc4;fill-opacity:1;fill-rule:nonzero;stroke:none"
               id="path132" />
          </g>
        </g>
      </g>
      <path
         d="M 111.555,158.94 H 62.966 v -18.414 h 48.589 z"
         style="fill:#699550;fill-opacity:1;fill-rule:nonzero;stroke:none"
         id="path134" />
      <path
         d="m 111.152,167.091 h 2.255 v -2.115 h -2.255 z"
         style="fill:#000000;fill-opacity:1;fill-rule:nonzero;stroke:none"
         id="path136" />
      <g
         id="g138"
         transform="translate(68.6556,168.2347)">
        <path
           d="M 0,0 3.378,4.021 H 5.7 V -6.817 H 3.067 v 6.762 L 0.2,-3.457 h -0.401 l -2.837,3.402 V -6.817 H -5.67 V 4.021 h 2.326 z"
           style="fill:#000000;fill-opacity:1;fill-rule:nonzero;stroke:none"
           id="path140" />
      </g>
      <path
         d="m 79.385,161.418 h -2.632 v 10.837 h 2.632 z"
         style="fill:#000000;fill-opacity:1;fill-rule:nonzero;stroke:none"
         id="path142" />
      <g
         id="g144"
         transform="translate(88.2299,165.4503)">
        <path
           d="M 0,0 -1.711,4.211 -3.264,0 Z M -0.21,6.805 4.464,-4.032 H 1.638 l -0.864,2.128 h -4.741 l -0.785,-2.128 h -2.797 l 4.268,10.837 z"
           style="fill:#000000;fill-opacity:1;fill-rule:nonzero;stroke:none"
           id="path146" />
      </g>
      <g
         id="g148"
         transform="translate(99.6271,168.2347)">
        <path
           d="M 0,0 3.377,4.021 H 5.699 V -6.817 H 3.067 v 6.762 L 0.2,-3.457 h -0.401 l -2.837,3.402 V -6.817 H -5.671 V 4.021 h 2.327 z"
           style="fill:#000000;fill-opacity:1;fill-rule:nonzero;stroke:none"
           id="path150" />
      </g>
      <path
         d="m 110.356,161.418 h -2.632 v 10.837 h 2.632 z"
         style="fill:#000000;fill-opacity:1;fill-rule:nonzero;stroke:none"
         id="path152" />
      <g
         id="g154">
        <g
           id="g156"
           clip-path="url(#clipPath160)">
          <g
             id="g162"
             transform="translate(117.2556,170.2598)">
            <path
               d="m 0,0 v -6.86 h 1.705 c 1.106,0 1.953,0.314 2.54,0.941 0.585,0.628 0.88,1.456 0.88,2.485 0,1.065 -0.298,1.903 -0.893,2.515 C 3.639,-0.306 2.785,0 1.675,0 Z M -2.633,1.989 H 2.015 C 3.807,1.989 5.226,1.483 6.272,0.472 7.318,-0.54 7.84,-1.846 7.84,-3.449 7.84,-5.131 7.31,-6.45 6.253,-7.41 5.193,-8.37 3.683,-8.849 1.721,-8.849 h -4.354 z"
               style="fill:#000000;fill-opacity:1;fill-rule:nonzero;stroke:none"
               id="path164" />
          </g>
          <g
             id="g166"
             transform="translate(131.3424,165.4432)">
            <path
               d="M 0,0 -1.71,4.212 -3.266,0 Z M -0.212,6.805 4.464,-4.032 H 1.638 l -0.865,2.128 h -4.74 L -4.754,-4.032 H -7.55 l 4.269,10.837 z"
               style="fill:#000000;fill-opacity:1;fill-rule:nonzero;stroke:none"
               id="path168" />
          </g>
          <g
             id="g170"
             transform="translate(138.4758,170.2598)">
            <path
               d="m 0,0 v -6.86 h 1.706 c 1.106,0 1.952,0.314 2.538,0.941 0.587,0.628 0.881,1.456 0.881,2.485 0,1.065 -0.297,1.903 -0.892,2.515 C 3.638,-0.306 2.785,0 1.675,0 Z M -2.632,1.989 H 2.015 C 3.808,1.989 5.227,1.483 6.273,0.472 7.319,-0.54 7.841,-1.846 7.841,-3.449 7.841,-5.131 7.312,-6.45 6.253,-7.41 5.194,-8.37 3.683,-8.849 1.722,-8.849 h -4.354 z"
               style="fill:#000000;fill-opacity:1;fill-rule:nonzero;stroke:none"
               id="path172" />
          </g>
          <g
             id="g174"
             transform="translate(154.8301,163.3995)">
            <path
               d="M 0,0 V -1.989 H -7.786 V 8.849 h 7.673 V 6.86 H -5.152 V 4.592 h 4.815 V 2.604 H -5.152 V 0 Z"
               style="fill:#000000;fill-opacity:1;fill-rule:nonzero;stroke:none"
               id="path176" />
          </g>
          <g
             id="g178"
             transform="translate(70.9335,147.1666)">
            <path
               d="m 0,0 v -2.347 c -0.829,-0.714 -1.7,-1.069 -2.612,-1.069 -1.175,0 -2.111,0.53 -2.81,1.593 -0.698,1.063 -1.047,2.374 -1.047,3.929 0,1.558 0.367,2.88 1.1,3.966 0.733,1.085 1.695,1.629 2.885,1.629 0.947,0 1.747,-0.315 2.4,-0.945 V 4.368 C -0.886,5.097 -1.646,5.462 -2.365,5.462 -3.068,5.462 -3.644,5.15 -4.09,4.53 -4.537,3.909 -4.76,3.118 -4.76,2.158 c 0,-0.966 0.22,-1.763 0.663,-2.392 0.442,-0.629 1.008,-0.942 1.698,-0.942 0.339,0 0.666,0.073 0.983,0.217 C -1.099,-0.814 -0.627,-0.494 0,0"
               style="fill:#ffffff;fill-opacity:1;fill-rule:nonzero;stroke:none"
               id="path180" />
          </g>
          <g
             id="g182"
             transform="translate(75.7736,145.9904)">
            <path
               d="m 0,0 c 0.629,0 1.135,0.305 1.52,0.915 0.383,0.611 0.576,1.412 0.576,2.403 0,0.997 -0.193,1.8 -0.576,2.408 C 1.135,6.333 0.629,6.638 0,6.638 c -0.63,0 -1.137,-0.305 -1.525,-0.912 -0.386,-0.608 -0.58,-1.411 -0.58,-2.408 0,-0.991 0.194,-1.792 0.58,-2.403 C -1.137,0.305 -0.63,0 0,0 M 0,8.877 C 1.135,8.877 2.054,8.319 2.755,7.205 3.454,6.091 3.804,4.793 3.804,3.314 3.804,1.815 3.449,0.513 2.739,-0.588 2.028,-1.689 1.115,-2.24 0,-2.24 c -1.126,0 -2.044,0.548 -2.752,1.645 -0.708,1.096 -1.061,2.399 -1.061,3.909 0,1.485 0.351,2.783 1.054,3.895 0.702,1.112 1.622,1.668 2.759,1.668"
               style="fill:#ffffff;fill-opacity:1;fill-rule:nonzero;stroke:none"
               id="path184" />
          </g>
          <g
             id="g186"
             transform="translate(85.6769,154.6992)">
            <path
               d="m 0,0 h 1.652 v -6.137 c 0,-1.577 -0.287,-2.775 -0.86,-3.59 -0.574,-0.815 -1.393,-1.222 -2.459,-1.222 -1.049,0 -1.865,0.413 -2.446,1.238 -0.581,0.825 -0.872,2.011 -0.872,3.559 V 0 h 1.652 v -6.217 c 0,-0.752 0.152,-1.357 0.457,-1.811 0.304,-0.454 0.7,-0.681 1.191,-0.681 0.51,0 0.918,0.232 1.225,0.696 C -0.154,-7.547 0,-6.887 0,-6.03 Z"
               style="fill:#ffffff;fill-opacity:1;fill-rule:nonzero;stroke:none"
               id="path188" />
          </g>
          <g
             id="g190"
             transform="translate(95.4728,154.6992)">
            <path
               d="m 0,0 v -10.781 h -1.378 l -3.663,6.907 v -6.907 H -6.692 V 0 h 1.516 l 3.524,-6.59 V 0 Z"
               style="fill:#ffffff;fill-opacity:1;fill-rule:nonzero;stroke:none"
               id="path192" />
          </g>
          <g
             id="g194"
             transform="translate(102.9806,154.6992)">
            <path
               d="m 0,0 v -1.988 h -2.408 v -8.793 H -4.06 v 8.793 H -6.468 V 0 Z"
               style="fill:#ffffff;fill-opacity:1;fill-rule:nonzero;stroke:none"
               id="path196" />
          </g>
          <g
             id="g198"
             transform="translate(105.8291,143.9185)">
            <path
               d="m 0,0 v 4.967 l -2.604,5.814 h 1.996 L 0.827,7.392 2.288,10.781 H 4.285 L 1.653,5.032 V 0 Z"
               style="fill:#ffffff;fill-opacity:1;fill-rule:nonzero;stroke:none"
               id="path200" />
          </g>
        </g>
      </g>
    </g>
  </g>
</svg>
