<?xml version="1.0" encoding="UTF-8" standalone="no"?>
<!-- Created with Inkscape (http://www.inkscape.org/) -->

<svg
   width="182.10072mm"
   height="55.586758mm"
   viewBox="0 0 182.10072 55.586758"
   version="1.1"
   id="svg1662"
   inkscape:version="1.2.2 (b0a8486541, 2022-12-01)"
   sodipodi:docname="seattle-logo.svg"
   xmlns:inkscape="http://www.inkscape.org/namespaces/inkscape"
   xmlns:sodipodi="http://sodipodi.sourceforge.net/DTD/sodipodi-0.dtd"
   xmlns="http://www.w3.org/2000/svg"
   xmlns:svg="http://www.w3.org/2000/svg">
  <sodipodi:namedview
     id="namedview1664"
     pagecolor="#ffffff"
     bordercolor="#666666"
     borderopacity="1.0"
     inkscape:showpageshadow="2"
     inkscape:pageopacity="0.0"
     inkscape:pagecheckerboard="0"
     inkscape:deskcolor="#d1d1d1"
     inkscape:document-units="mm"
     showgrid="false"
     inkscape:zoom="1.4412757"
     inkscape:cx="341.36426"
     inkscape:cy="108.23745"
     inkscape:window-width="1536"
     inkscape:window-height="827"
     inkscape:window-x="0"
     inkscape:window-y="0"
     inkscape:window-maximized="1"
     inkscape:current-layer="layer1">
    <inkscape:grid
       type="xygrid"
       id="grid1761" />
  </sodipodi:namedview>
  <defs
     id="defs1659">
    <clipPath
       clipPathUnits="userSpaceOnUse"
       id="clipPath143">
      <path
         d="M 33.883,310.63 H 215.48 v 55.434 H 33.883 Z"
         id="path141" />
    </clipPath>
  </defs>
  <g
     inkscape:label="Layer 1"
     inkscape:groupmode="layer"
     id="layer1"
     transform="translate(-8.2352901,-10.84955)">
    <g
       id="g137"
       transform="matrix(0.88120627,0,0,-0.88120627,-10.623415,336.42621)">
      <g
         id="g139"
         clip-path="url(#clipPath143)">
        <g
           id="g145"
           transform="translate(104.4629,331.2587)">
          <path
             d="m 0,0 c 0.934,-0.369 2.002,-0.719 3.207,-1.051 1.203,-0.331 2.641,-0.497 4.312,-0.497 1.867,0 3.194,0.27 3.981,0.811 0.786,0.54 1.179,1.339 1.179,2.396 0,1.13 -0.344,1.91 -1.032,2.34 C 10.959,4.429 9.939,4.742 8.588,4.939 7.187,5.111 5.94,5.356 4.847,5.676 3.753,5.995 2.838,6.437 2.101,7.003 1.364,7.568 0.805,8.293 0.424,9.178 c -0.381,0.884 -0.572,1.965 -0.572,3.243 0,0.909 0.16,1.812 0.48,2.709 0.319,0.897 0.848,1.708 1.585,2.433 0.737,0.724 1.714,1.308 2.93,1.75 1.216,0.443 2.721,0.664 4.515,0.664 1.818,0 3.329,-0.154 4.533,-0.461 1.204,-0.307 2.163,-0.633 2.875,-0.976 v -4.35 c -0.884,0.344 -1.916,0.627 -3.096,0.848 C 12.495,15.259 11.266,15.37 9.989,15.37 9.03,15.37 8.231,15.296 7.593,15.149 6.954,15.001 6.444,14.799 6.063,14.541 5.682,14.282 5.412,13.975 5.252,13.619 5.092,13.263 5.013,12.876 5.013,12.458 5.013,11.45 5.412,10.744 6.211,10.339 7.009,9.933 8.072,9.644 9.399,9.473 10.775,9.3 11.991,9.049 13.048,8.717 c 1.056,-0.332 1.94,-0.793 2.654,-1.382 0.712,-0.59 1.259,-1.334 1.64,-2.23 0.38,-0.897 0.571,-1.985 0.571,-3.262 0,-1.229 -0.191,-2.335 -0.571,-3.317 -0.381,-0.984 -0.977,-1.819 -1.788,-2.507 -0.811,-0.688 -1.855,-1.216 -3.133,-1.585 -1.278,-0.368 -2.801,-0.553 -4.57,-0.553 -1.622,0 -3.103,0.166 -4.441,0.498 C 2.07,-5.289 0.934,-4.853 0,-4.312 Z"
             style="fill:#1c1c1b;fill-opacity:1;fill-rule:nonzero;stroke:none"
             id="path147" />
        </g>
        <g
           id="g149"
           transform="translate(132.9542,340.3626)">
          <path
             d="M 0,0 C -1.008,0 -1.788,-0.313 -2.34,-0.94 -2.893,-1.566 -3.219,-2.469 -3.317,-3.649 H 2.875 C 2.825,-2.519 2.561,-1.628 2.082,-0.977 1.603,-0.326 0.909,0 0,0 m 7.408,-13.932 c -0.761,-0.418 -1.702,-0.744 -2.819,-0.977 -1.119,-0.233 -2.317,-0.35 -3.594,-0.35 -3.022,0 -5.314,0.848 -6.874,2.543 -1.561,1.696 -2.34,4.103 -2.34,7.224 0,3.145 0.737,5.553 2.211,7.224 C -4.533,3.403 -2.531,4.239 0,4.239 1.351,4.239 2.518,3.999 3.502,3.52 4.484,3.041 5.295,2.371 5.934,1.511 6.573,0.651 7.046,-0.375 7.353,-1.566 7.66,-2.759 7.814,-4.067 7.814,-5.492 V -7.408 H -3.281 c 0.098,-1.082 0.522,-1.948 1.272,-2.599 0.749,-0.651 1.922,-0.977 3.52,-0.977 1.106,0 2.15,0.093 3.133,0.277 0.982,0.184 1.904,0.436 2.764,0.755 z"
             style="fill:#1c1c1b;fill-opacity:1;fill-rule:nonzero;stroke:none"
             id="path151" />
        </g>
        <g
           id="g153"
           transform="translate(154.0738,333.6913)">
          <path
             d="m 0,0 h -3.17 c -1.032,0 -1.812,-0.172 -2.34,-0.516 -0.529,-0.344 -0.793,-0.934 -0.793,-1.769 0,-0.787 0.24,-1.364 0.719,-1.733 0.479,-0.368 1.111,-0.552 1.898,-0.552 0.786,0 1.493,0.104 2.12,0.313 0.626,0.209 1.148,0.461 1.566,0.755 z m 1.18,-8.035 -0.185,1.548 c -0.737,-0.59 -1.603,-1.087 -2.598,-1.493 -0.995,-0.405 -2.144,-0.608 -3.446,-0.608 -1.967,0 -3.465,0.541 -4.497,1.622 -1.032,1.081 -1.548,2.543 -1.548,4.386 0,1.99 0.595,3.502 1.787,4.533 1.192,1.033 3.078,1.549 5.658,1.549 H 0 v 0.479 c 0,0.859 -0.258,1.523 -0.774,1.99 -0.516,0.466 -1.548,0.7 -3.096,0.7 -1.179,0 -2.322,-0.123 -3.428,-0.368 C -8.404,6.057 -9.276,5.799 -9.915,5.529 v 4.128 c 0.344,0.171 0.774,0.332 1.29,0.479 0.516,0.147 1.069,0.276 1.659,0.387 0.589,0.11 1.203,0.203 1.843,0.276 0.638,0.074 1.253,0.111 1.842,0.111 1.598,0 2.931,-0.166 4,-0.498 C 1.788,10.081 2.641,9.614 3.281,9.012 3.919,8.409 4.373,7.691 4.644,6.856 4.914,6.02 5.049,5.098 5.049,4.091 V -8.035 Z"
             style="fill:#1c1c1b;fill-opacity:1;fill-rule:nonzero;stroke:none"
             id="path155" />
        </g>
        <g
           id="g157"
           transform="translate(173.4243,325.5826)">
          <path
             d="m 0,0 c -0.345,-0.122 -0.78,-0.233 -1.308,-0.332 -0.529,-0.098 -1.15,-0.147 -1.862,-0.147 -1.893,0 -3.409,0.442 -4.552,1.327 -1.143,0.884 -1.714,2.396 -1.714,4.533 v 8.957 h -2.654 v 4.165 h 2.654 v 4.423 h 5.05 V 18.503 H 0.221 V 14.338 H -4.386 V 5.971 c 0,-0.737 0.227,-1.29 0.682,-1.659 0.454,-0.368 1.099,-0.552 1.935,-0.552 0.344,0 0.7,0.03 1.069,0.092 0.368,0.061 0.601,0.104 0.7,0.129 z"
             style="fill:#1c1c1b;fill-opacity:1;fill-rule:nonzero;stroke:none"
             id="path159" />
        </g>
        <g
           id="g161"
           transform="translate(187.5042,325.5826)">
          <path
             d="m 0,0 c -0.345,-0.122 -0.78,-0.233 -1.308,-0.332 -0.529,-0.098 -1.15,-0.147 -1.862,-0.147 -1.893,0 -3.409,0.442 -4.552,1.327 -1.143,0.884 -1.714,2.396 -1.714,4.533 v 8.957 h -2.654 v 4.165 h 2.654 v 4.423 h 5.05 V 18.503 H 0.221 V 14.338 H -4.386 V 5.971 c 0,-0.737 0.227,-1.29 0.682,-1.659 0.454,-0.368 1.099,-0.552 1.935,-0.552 0.344,0 0.7,0.03 1.069,0.092 0.368,0.061 0.601,0.104 0.7,0.129 z"
             style="fill:#1c1c1b;fill-opacity:1;fill-rule:nonzero;stroke:none"
             id="path163" />
        </g>
        <g
           id="g165"
           transform="translate(195.355,325.1034)">
          <path
             d="m 0,0 c -1.499,0 -2.648,0.357 -3.446,1.069 -0.799,0.712 -1.198,1.806 -1.198,3.28 v 22.005 h 5.05 V 5.602 c 0,-0.491 0.115,-0.841 0.35,-1.05 C 0.989,4.343 1.376,4.239 1.917,4.239 V 0.258 C 1.744,0.209 1.56,0.16 1.364,0.111 1.167,0.086 0.958,0.062 0.737,0.037 0.516,0.013 0.27,0 0,0"
             style="fill:#1c1c1b;fill-opacity:1;fill-rule:nonzero;stroke:none"
             id="path167" />
        </g>
        <g
           id="g169"
           transform="translate(207.6656,340.3626)">
          <path
             d="M 0,0 C -1.008,0 -1.788,-0.313 -2.34,-0.94 -2.893,-1.566 -3.219,-2.469 -3.317,-3.649 H 2.875 C 2.825,-2.519 2.561,-1.628 2.082,-0.977 1.603,-0.326 0.908,0 0,0 m 7.408,-13.932 c -0.761,-0.418 -1.702,-0.744 -2.819,-0.977 -1.119,-0.233 -2.317,-0.35 -3.594,-0.35 -3.022,0 -5.314,0.848 -6.874,2.543 -1.561,1.696 -2.34,4.103 -2.34,7.224 0,3.145 0.737,5.553 2.211,7.224 C -4.533,3.403 -2.531,4.239 0,4.239 1.351,4.239 2.518,3.999 3.502,3.52 4.484,3.041 5.295,2.371 5.934,1.511 6.573,0.651 7.046,-0.375 7.353,-1.566 7.66,-2.759 7.814,-4.067 7.814,-5.492 V -7.408 H -3.281 c 0.098,-1.082 0.522,-1.948 1.272,-2.599 0.749,-0.651 1.922,-0.977 3.52,-0.977 1.106,0 2.15,0.093 3.133,0.277 0.982,0.184 1.904,0.436 2.764,0.755 z"
             style="fill:#1c1c1b;fill-opacity:1;fill-rule:nonzero;stroke:none"
             id="path171" />
        </g>
        <g
           id="g173"
           transform="translate(61.6526,365.4385)">
          <path
             d="m 0,0 c -14.973,0 -27.111,-12.128 -27.111,-27.088 0,-14.961 12.138,-27.089 27.111,-27.089 14.973,0 27.112,12.128 27.112,27.089 C 27.112,-12.128 14.973,0 0,0"
             style="fill:#00539b;fill-opacity:1;fill-rule:nonzero;stroke:none"
             id="path175" />
        </g>
        <g
           id="g177"
           transform="translate(78.1509,317.2946)">
          <path
             d="m 0,0 0.025,19.954 c 0,0 1.876,-1.964 2.978,-6.277 C 4.067,9.513 4.241,5.353 4.27,4.209 3.007,2.653 1.575,1.24 0,0 m -21.864,-5.203 c -0.033,0.06 -0.051,0.134 -0.025,0.225 0.375,1.352 1.262,1.31 2.051,3.731 0.803,2.466 0.212,4.915 -0.036,5.928 -0.21,0.859 -0.328,2.245 -1.453,2.697 -1.495,0.6 -4.497,0.572 -7.315,0.332 -2.044,-0.174 -1.247,-1.276 -0.648,-2.34 0.409,-0.726 0.341,-1.461 0.613,-2.407 0.311,-1.082 1.46,-2.098 1.827,-2.797 0.511,-0.974 1.063,-3.037 0.64,-3.74 -0.072,-0.121 -0.141,-0.21 -0.206,-0.278 -9.909,3.935 -16.933,13.615 -16.933,24.904 0,13.744 10.412,25.102 23.766,26.612 0.206,-4.628 0.862,-8.495 2.849,-11.579 3.11,-4.825 7.169,-5.724 7.169,-5.724 v -9.438 c -3.628,2.231 -9.074,6.015 -11.826,20.93 -0.367,1.988 -1.748,1.987 -2.958,1.528 -3.784,-1.434 -6.832,-5.815 -8.442,-7.205 -0.29,-0.25 -0.592,-0.382 -0.699,-0.655 -0.108,-0.273 0.271,-0.653 0.484,-0.819 0.233,-0.182 0.489,-0.146 1.021,-0.328 0.887,-0.302 1.722,-1.255 2.366,-1.747 0.646,-0.49 2.097,-1.346 2.957,-1.474 0.413,-0.163 0.395,-0.29 0.377,-0.545 -0.017,-0.255 -0.268,-0.437 -0.698,-0.491 -0.431,-0.055 -1.829,0.054 -2.582,-0.11 -0.753,-0.163 -1.022,-0.654 -1.29,-1.036 -0.269,-0.383 -0.354,-1.014 -0.646,-1.256 -0.159,-0.132 -0.376,-0.109 -0.537,0 -0.162,0.109 -0.215,0.273 -0.162,0.6 0.054,0.328 0.108,0.6 0.162,0.874 0.053,0.273 0.053,0.928 -0.054,1.31 -0.108,0.382 -0.431,0.873 -0.699,1.092 -0.472,0.384 -1.056,0.683 -1.667,0.109 -0.308,-0.29 -2.529,-4.059 -3.28,-5.405 -0.475,-0.849 -1.13,-2.292 -1.183,-2.674 -0.054,-0.382 0,-0.819 0.269,-1.146 0.269,-0.328 0.752,-0.546 1.183,-0.655 0.509,-0.107 0.864,0.045 1.291,-0.054 0.414,-0.111 0.204,-0.565 0.043,-0.893 -0.208,-0.309 -0.507,-0.326 -0.689,-0.582 -0.337,-0.473 0.058,-0.722 0.209,-0.969 0.196,-0.321 0.039,-0.523 -0.209,-1.05 -0.392,-0.835 0.107,-1.435 0.34,-1.911 0.236,-0.482 0.133,-1.579 -0.196,-2.288 -0.065,-0.138 -0.359,-0.837 -0.466,-1.315 -0.337,-1.17 0.925,-2.662 1.828,-3.111 1.243,-0.62 6.129,-0.109 9.571,0.109 3.441,0.218 4.786,1.528 5.592,2.839 0.807,1.31 0.646,2.893 0.646,3.33 0,0.436 -0.13,1.14 -0.216,1.528 -0.665,2.994 0.569,6.917 0.968,7.424 0.036,0.072 0.269,0.145 0.43,-0.055 0.813,-1.375 1.831,-2.428 2.63,-3.107 -0.002,-2.781 -0.027,-24.172 -0.031,-27.434 -0.273,-0.009 -0.548,-0.014 -0.823,-0.014 -1.818,0 -3.595,0.183 -5.313,0.53 M 10.14,23.444 c -0.813,2.065 -1.792,4.007 -3.291,6.184 -3.207,4.655 -6.803,6.566 -6.803,6.566 l 0.007,5.867 C 5.671,37.617 9.47,30.974 10.14,23.444 M -6.521,45.888 c 1.156,-0.467 2.272,-1.013 3.341,-1.631 V -2.154 c -1.069,-0.618 -2.185,-1.163 -3.341,-1.631 z m -9.557,1.942 c 2.249,-0.039 4.431,-0.356 6.513,-0.919 V 34.117 c 0,0 -2.588,0.785 -4.884,4.758 -1.676,2.902 -1.655,7.669 -1.629,8.955 m 3.618,-28.574 c 1.534,-1.072 2.791,-1.858 2.791,-1.858 l 0.104,-0.064 V -4.808 c -0.951,-0.256 -1.921,-0.464 -2.91,-0.616 -0.005,8.254 0.013,23.179 0.015,24.68 M 4.843,18.002 C 2.76,23.165 0.032,25.451 0.032,25.451 L 0.04,31.472 C 0.072,31.461 0.107,31.447 0.145,31.427 1.976,30.478 4.461,27.508 5.952,24.812 8.275,20.61 9.28,16.318 9.553,14.983 8.992,12.569 8.102,10.28 6.935,8.164 6.923,9.721 6.675,13.461 4.843,18.002 m -21.394,30.766 c -15.283,0 -27.716,-12.433 -27.716,-27.716 0,-15.283 12.433,-27.717 27.716,-27.717 15.283,0 27.717,12.434 27.717,27.717 0,15.283 -12.434,27.716 -27.717,27.716"
             style="fill:#ffffff;fill-opacity:1;fill-rule:nonzero;stroke:none"
             id="path179" />
        </g>
      </g>
    </g>
  </g>
</svg>
